<?xml version="1.0" encoding="UTF-8" standalone="no"?>
<!DOCTYPE svg PUBLIC "-//W3C//DTD SVG 1.1//EN" "http://www.w3.org/Graphics/SVG/1.1/DTD/svg11.dtd">
<svg version="1.1" xmlns="http://www.w3.org/2000/svg" xmlns:xlink="http://www.w3.org/1999/xlink" preserveAspectRatio="xMidYMid meet" viewBox="-0.9999999999999574 103.6696619183395 645.4477766287488 434.66067616332094" width="512" height="512"><defs><path d="M84.95 316.62C84.95 437.61 85.14 433.06 79.32 444.21C73.88 454.61 65.1 461.94 52.88 466.4C46.68 468.72 45.05 468.81 23.19 469.28C10.4 469.47 0 469.93 0 470.3C0 471.51 8.69 485.71 12.51 490.73C21.67 502.71 38.95 516.64 53.26 523.69C65.86 529.92 83.9 534.29 99.85 535.12C128.67 536.6 157.41 526.76 180.22 507.63C180.68 507.25 182.96 505.33 187.09 501.88C190.87 504.99 192.97 506.72 193.39 507.07C225.27 533.35 265.93 541.9 304.5 530.2C319.2 525.74 335.81 516.55 346.4 506.98C346.76 506.65 348.58 505.01 351.84 502.05C353.56 503.62 354.51 504.48 354.7 504.66C381.05 528.52 415.8 539.2 450.54 534C477.08 530.1 496.45 520.45 515.92 501.5C535.78 482.09 546.28 459.99 548.86 432.14C549.34 426.57 549.81 378.64 549.81 325.63C549.81 240.65 550 228.59 551.34 224.22C555.54 210.11 567.57 198.22 582.26 193.49C587.9 191.71 591.04 191.44 615.01 191.07C629.52 190.88 641.45 190.42 641.45 189.95C641.45 188.19 636.2 174.07 633.24 168.13C625.31 151.88 609.38 133.86 594.29 124.02C552.87 97.09 499.13 98.57 459.61 127.74C454.84 131.17 450.16 134.88 449.2 136C447.49 137.85 447.49 137.85 440.61 132.1C410.17 106.19 366.93 97.93 328.74 110.55C313.95 115.48 301.44 122.63 287.03 134.52C286.74 134.75 285.27 135.92 282.64 138.04C278.34 134.54 275.95 132.59 275.48 132.19C249.32 110.93 218.01 101.64 185.66 105.54C141.75 110.93 104.81 140.46 90.68 181.41C84.86 198.49 84.95 195.34 84.95 316.62ZM247.8 437.42C241.88 453.03 228.52 464.91 213.24 467.98C213.04 468.02 212.02 468.24 210.18 468.63C211.85 464.11 212.77 461.61 212.96 461.1C214.48 457.02 216.59 449.5 217.63 444.39C219.45 435.57 219.55 431.76 219.55 336.02C219.55 274.74 219.93 234.44 220.5 230.44C222.6 216.51 232.42 203.14 245.31 196.64C248.56 195.06 251.62 193.66 252 193.66C252.38 193.66 252.28 195.25 251.71 197.1C251.05 199.51 250.47 237.68 250.18 316.71C249.61 426.74 249.51 433.06 247.8 437.42ZM413.79 432.78C412.47 436.13 411.74 437.99 411.6 438.35C406.25 452.38 394.7 462.87 380.19 466.95C379.87 467.05 378.24 467.52 375.33 468.35C376.47 465.89 377.1 464.54 377.23 464.26C380.29 457.39 383.73 442.91 384.68 432.14C385.16 426.57 385.63 378.56 385.63 325.44C385.63 230.72 385.73 228.68 387.63 223.19C392.13 210.19 402.72 199.42 416.75 193.76C416.84 193.66 416.46 195.25 415.89 197.1C415.23 199.51 414.65 237.68 414.37 316.71C414.33 324.44 414.13 363.14 413.79 432.78Z" id="c1kKbQL9DR"></path></defs><g><g><use xlink:href="#c1kKbQL9DR" opacity="1" fill="#4f46e5" fill-opacity="1"></use><g><use xlink:href="#c1kKbQL9DR" opacity="1" fill-opacity="0" stroke="#000000" stroke-width="1" stroke-opacity="0"></use></g></g></g></svg>