<?xml version="1.0" encoding="UTF-8" standalone="no"?>
<!DOCTYPE svg PUBLIC "-//W3C//DTD SVG 1.1//EN" "http://www.w3.org/Graphics/SVG/1.1/DTD/svg11.dtd">
<svg version="1.1" xmlns="http://www.w3.org/2000/svg" xmlns:xlink="http://www.w3.org/1999/xlink" preserveAspectRatio="xMidYMid meet" viewBox="0 0 640 640" width="100" height="100"><defs><path d="M128.51 418.53C124.19 426.78 117.23 432.59 107.53 436.13C102.61 437.97 101.32 438.04 83.98 438.41C73.84 438.57 65.59 438.93 65.59 439.22C65.59 440.18 72.48 451.45 75.51 455.43C82.78 464.93 96.48 475.98 107.83 481.58C117.83 486.52 132.14 489.98 144.79 490.64C167.65 491.82 190.45 484.01 208.54 468.84C208.91 468.53 210.72 467.01 213.99 464.27C216.99 466.74 218.66 468.11 218.99 468.39C244.28 489.24 276.53 496.02 307.13 486.74C318.79 483.2 331.97 475.91 340.37 468.32C340.65 468.06 342.1 466.76 344.68 464.41C346.05 465.65 346.8 466.34 346.95 466.48C367.85 485.41 395.42 493.88 422.98 489.75C444.03 486.66 459.39 479.01 474.84 463.97C490.59 448.58 498.92 431.05 500.97 408.95C501.35 404.53 501.72 366.51 501.72 324.46C501.72 257.05 501.87 247.49 502.93 244.02C506.27 232.83 515.81 223.4 527.46 219.64C531.94 218.23 534.43 218.02 553.44 217.73C564.95 217.57 574.41 217.21 574.41 216.84C574.41 215.44 570.25 204.24 567.9 199.53C561.61 186.64 548.97 172.34 537 164.54C504.15 143.18 461.52 144.35 430.17 167.49C426.39 170.21 422.67 173.15 421.91 174.04C420.56 175.51 420.56 175.51 415.1 170.95C390.95 150.39 356.65 143.84 326.36 153.85C314.63 157.76 304.7 163.44 293.27 172.87C293.04 173.05 291.88 173.98 289.79 175.66C286.38 172.88 284.48 171.34 284.11 171.02C263.36 154.15 238.52 146.78 212.86 149.88C178.03 154.15 148.73 177.58 137.52 210.06C132.9 223.61 132.97 221.11 132.97 317.32C132.97 413.29 133.12 409.68 128.51 418.53ZM234.74 437.38C234.58 437.42 233.77 437.59 232.31 437.9C233.64 434.31 234.36 432.33 234.52 431.93C235.72 428.69 237.4 422.72 238.22 418.67C239.66 411.67 239.74 408.65 239.74 332.71C239.74 284.1 240.04 252.13 240.5 248.96C242.16 237.91 249.95 227.3 260.18 222.14C262.76 220.89 265.18 219.78 265.48 219.78C265.79 219.78 265.71 221.04 265.25 222.51C264.73 224.42 264.27 254.7 264.04 317.39C263.59 404.67 263.51 409.68 262.15 413.14C257.46 425.52 246.86 434.95 234.74 437.38ZM392.09 413.88C387.84 425.01 378.68 433.33 367.17 436.57C366.92 436.65 365.62 437.02 363.32 437.68C364.22 435.73 364.72 434.65 364.82 434.43C367.25 428.98 369.98 417.5 370.73 408.95C371.11 404.53 371.49 366.45 371.49 324.31C371.49 249.18 371.57 247.56 373.07 243.2C376.64 232.89 385.04 224.35 396.17 219.86C396.24 219.78 395.94 221.04 395.49 222.51C394.97 224.42 394.51 254.7 394.28 317.39C394.25 323.52 394.09 354.22 393.82 409.46C392.78 412.12 392.2 413.59 392.09 413.88Z" id="b1nrbKFnO"></path><path d="M128.51 418.53C124.19 426.78 117.23 432.59 107.53 436.13C102.61 437.97 101.32 438.04 83.98 438.41C73.84 438.57 65.59 438.93 65.59 439.22C65.59 440.18 72.48 451.45 75.51 455.43C82.78 464.93 96.48 475.98 107.83 481.58C117.83 486.52 132.14 489.98 144.79 490.64C167.65 491.82 190.45 484.01 208.54 468.84C208.91 468.53 210.72 467.01 213.99 464.27C216.99 466.74 218.66 468.11 218.99 468.39C244.28 489.24 276.53 496.02 307.13 486.74C318.79 483.2 331.97 475.91 340.37 468.32C340.65 468.06 342.1 466.76 344.68 464.41C346.05 465.65 346.8 466.34 346.95 466.48C367.85 485.41 395.42 493.88 422.98 489.75C444.03 486.66 459.39 479.01 474.84 463.97C490.59 448.58 498.92 431.05 500.97 408.95C501.35 404.53 501.72 366.51 501.72 324.46C501.72 257.05 501.87 247.49 502.93 244.02C506.27 232.83 515.81 223.4 527.46 219.64C531.94 218.23 534.43 218.02 553.44 217.73C564.95 217.57 574.41 217.21 574.41 216.84C574.41 215.44 570.25 204.24 567.9 199.53C561.61 186.64 548.97 172.34 537 164.54C504.15 143.18 461.52 144.35 430.17 167.49C426.39 170.21 422.67 173.15 421.91 174.04C420.56 175.51 420.56 175.51 415.1 170.95C390.95 150.39 356.65 143.84 326.36 153.85C314.63 157.76 304.7 163.44 293.27 172.87C293.04 173.05 291.88 173.98 289.79 175.66C286.38 172.88 284.48 171.34 284.11 171.02C263.36 154.15 238.52 146.78 212.86 149.88C178.03 154.15 148.73 177.58 137.52 210.06C132.9 223.61 132.97 221.11 132.97 317.32C132.97 413.29 133.12 409.68 128.51 418.53ZM234.74 437.38C234.58 437.42 233.77 437.59 232.31 437.9C233.64 434.31 234.36 432.33 234.52 431.93C235.72 428.69 237.4 422.72 238.22 418.67C239.66 411.67 239.74 408.65 239.74 332.71C239.74 284.1 240.04 252.13 240.5 248.96C242.16 237.91 249.95 227.3 260.18 222.14C262.76 220.89 265.18 219.78 265.48 219.78C265.79 219.78 265.71 221.04 265.25 222.51C264.73 224.42 264.27 254.7 264.04 317.39C263.59 404.67 263.51 409.68 262.15 413.14C257.46 425.52 246.86 434.95 234.74 437.38ZM392.09 413.88C387.84 425.01 378.68 433.33 367.17 436.57C366.92 436.65 365.62 437.02 363.32 437.68C364.22 435.73 364.72 434.65 364.82 434.43C367.25 428.98 369.98 417.5 370.73 408.95C371.11 404.53 371.49 366.45 371.49 324.31C371.49 249.18 371.57 247.56 373.07 243.2C376.64 232.89 385.04 224.35 396.17 219.86C396.24 219.78 395.94 221.04 395.49 222.51C394.97 224.42 394.51 254.7 394.28 317.39C394.25 323.52 394.09 354.22 393.82 409.46C392.78 412.12 392.2 413.59 392.09 413.88Z" id="e3vaqPQoBy"></path></defs><g><g><g><use xlink:href="#b1nrbKFnO" opacity="1" fill="#a5b4fc" fill-opacity="1"></use><g><use xlink:href="#b1nrbKFnO" opacity="1" fill-opacity="0" stroke="#000000" stroke-width="1" stroke-opacity="0"></use></g></g><g><use xlink:href="#e3vaqPQoBy" opacity="1" fill="#000000" fill-opacity="0"></use><g><use xlink:href="#e3vaqPQoBy" opacity="1" fill-opacity="0" stroke="#000000" stroke-width="1" stroke-opacity="0"></use></g></g></g></g></svg>